PathFileType	4	(X/Y/Z)	17_2_46_p0_0-568.trc
DataRate	CameraRate	NumFrames	NumMarkers	Units	OrigDataRate	OrigDataStartFrame	OrigNumFrames
59.0	59.0	6	27	m	59.0	142	569
Frame#	Time	RHip			RKnee			RAnkle			RBigToe			RSmallToe			RHeel			LHip			LKnee			LAnkle			LBigToe			LSmallToe			LHeel			Neck			Head			Nose			RShoulder			RElbow			RWrist			RThumb			RIndex			RPinky			LShoulder			LElbow			LWrist			LThumb			LIndex			LPinky			
		X1	Y1	Z1	X2	Y2	Z2	X3	Y3	Z3	X4	Y4	Z4	X5	Y5	Z5	X6	Y6	Z6	X7	Y7	Z7	X8	Y8	Z8	X9	Y9	Z9	X10	Y10	Z10	X11	Y11	Z11	X12	Y12	Z12	X13	Y13	Z13	X14	Y14	Z14	X15	Y15	Z15	X16	Y16	Z16	X17	Y17	Z17	X18	Y18	Z18	X19	Y19	Z19	X20	Y20	Z20	X21	Y21	Z21	X22	Y22	Z22	X23	Y23	Z23	X24	Y24	Z24	X25	Y25	Z25	X26	Y26	Z26	X27	Y27	Z27	
142	2.406779661016949	0.2639183044517519	0.4277425012311191	0.8912933372212232	0.24755724749261893	0.5611969004220083	1.3109910822829904	0.2268985630618174	0.6943672452565725	1.7016534513094461	0.24849325542394443	0.48925038989680714	1.7111692674809813	0.30143852535937327	0.5435141582920245	1.7311471009886923	0.19592595240987823	0.7809390576353618	1.7711588097060567	0.06990071785032476	0.4057191739696612	0.8842027208627774	0.04649684549869608	0.5923077781835828	1.32395080428452	0.044586999951301026	0.6684002160316822	1.7308459694767357	0.08089381052951583	0.45794154044067853	1.7174319450564486	0.015969560010916595	0.5129100477677475	1.7294518459366677	0.05814383044598912	0.731827898593959	1.7696901632680422	0.1799272211715253	0.43121191366311684	0.2976981033772558	0.19716310562260303	0.37470674742445587	0.05993251693553443	0.20513086329672162	0.2920387058270153	0.19393300412986508	0.2994892646895878	0.45793966244187717	0.40870271760230753	0.36961586097476146	0.4481424359612762	0.6700102603787299	0.3755079115280554	0.42981577451036246	0.9185432722127894	0.31891193199131906	0.42235839645653456	1.0361520250254692	0.3377584409837711	0.39329211937266806	1.0378570503701372	0.3798433774168597	0.4504722703670699	1.0399025300227578	0.017644511409252366	0.4179052947430014	0.3937474390999201	-0.024942296180189373	0.4139364130118711	0.6509927750132171	-0.02963700837437583	0.39332908373269587	0.8965254819204883	-0.008781688149905383	0.43505535942337564	1.003403953600516	-0.019597671247944537	0.38232482572907617	1.0133258064990744	-0.06227406988569776	0.39471763352180445	1.0021665446257104
143	2.4237288135593222	0.26399739502048547	0.42756171679258426	0.8913144736893114	0.24836281065450902	0.5607493722303603	1.3065218531589045	0.22790399724412083	0.6934533752084948	1.6971918231295338	0.24850288963060682	0.4890861901524624	1.711061367597622	0.2992747432786211	0.5303564400191737	1.7249773793443082	0.19593201394624696	0.7810157423162494	1.7711384108126589	0.07148573430732143	0.41775509444316256	0.8867986007339543	0.04649452637126727	0.5923170391314865	1.3239332352079836	0.04458825217580186	0.6683662590998796	1.7308773864023437	0.08098961077148624	0.45792013725064945	1.7174627255855224	0.01606784391194956	0.5129125486297741	1.7294850564069726	0.058080605953085826	0.7320826142164026	1.7698598429573855	0.17992114098680448	0.4311263390091859	0.29766703436597675	0.19713721706563467	0.3747794703788159	0.059939427095476935	0.20510525768951374	0.2920643365855705	0.19387413896978706	0.29951576716199435	0.45778540703605436	0.40858735311363786	0.3695894801649334	0.4479707813047336	0.6700295753426309	0.37554027671032586	0.4297838259667011	0.9185667348995623	0.3216026629657785	0.43359400037119555	1.043338597832572	0.33985246190968305	0.40557185366472936	1.041268458916936	0.3792599553338737	0.4491063041108239	1.0351568869021543	0.01740762448432957	0.41799962655620077	0.38993183017171745	-0.025130030370096777	0.4121712376877852	0.6469769236505242	-0.029593520952099144	0.3933800379248337	0.896538989771715	-0.009179265674440539	0.4367175757585649	1.0114203677936133	-0.019712324940308692	0.38207499699193465	1.0134167966770602	-0.06916900394767163	0.40567532095697617	1.0056062400893013
144	2.440677966101695	0.2639242116758282	0.42777867243081236	0.8910980445310047	0.24952007438145274	0.5592005370804973	1.305664581575939	0.22162529953950394	0.7104363068738802	1.7059060897991203	0.24901631364748283	0.48738163696022163	1.715011899996295	0.2992184802612103	0.5301009754918066	1.724980184212184	0.19736226085926448	0.7826067543612572	1.7815992504642104	0.06985951084973369	0.4056604893348653	0.88416290851365	0.05334050474457552	0.5782503732832561	1.3186458260243703	0.04961963679359962	0.670505966151352	1.7270221301426292	0.08091170058671224	0.4578007606632007	1.7178008299258472	0.015965276341719167	0.5130466032966189	1.7295134196559554	0.06200267162342989	0.7355735626289135	1.7711498136796786	0.17991650025439831	0.43106792376709985	0.29768018029673815	0.19720815300786307	0.37466221354007245	0.05989955154703644	0.2051489129323305	0.2922078839055357	0.19389082791496498	0.29928715851727405	0.4580105822682763	0.4051301099813946	0.3668182812077047	0.4367806543263233	0.6645275723985724	0.3755266290245478	0.42977564812052566	0.9185867690706122	0.31896785644724046	0.42203299381196935	1.0362764519439978	0.33720030569913256	0.39347585446054223	1.0414512515163146	0.3749616106965348	0.4631591543538093	1.0443018452836048	0.016689725093932392	0.40491857096306055	0.3930552583845951	-0.024948323411049345	0.4137774019713145	0.6509981653720479	-0.0306379432959913	0.380876924983006	0.8938146310150081	-0.008653025631709313	0.43679804880810963	1.0082167530318527	-0.019687395008774953	0.38265750031457446	1.0135491320562062	-0.06225301311895693	0.39473364486216406	1.002184331584983
145	2.457627118644068	0.263873895609082	0.42779142907085416	0.8911877368414493	0.2487139992209103	0.5595510725394558	1.3103263097079623	0.2216213117786223	0.7104736616838414	1.7059295291763628	0.2490275700887779	0.4876584384339834	1.7151684888896317	0.30132904583129616	0.5431893639335278	1.731196964876591	0.19652853200281717	0.7797954137779589	1.7757375792553527	0.07137746335367821	0.4178033962381522	0.8867937140617735	0.04651857015469989	0.5924195101135762	1.3240646140100896	0.04494208179955765	0.6655669037199531	1.7201699948639113	0.07650511468809068	0.45521848769763107	1.7170265337869581	0.011938632447551185	0.5109632230122271	1.7291079186073643	0.058699976799053824	0.7308016453794545	1.7735607022113389	0.1799332515664444	0.4309881041976856	0.2976683486824733	0.1971940072286704	0.3746900949346674	0.05983372488835046	0.20680581484624053	0.30314399800901565	0.1936382280825637	0.29991571609610834	0.4591615047823124	0.41222239141172934	0.36683524721196453	0.4369120391888712	0.6646575275401364	0.3750005720339256	0.4297205095176072	0.9224898758320669	0.3194738647600423	0.4207206701819491	1.040140919296037	0.3366577913904107	0.3936695378061044	1.0448379942518333	0.3749531545656252	0.4631697429430921	1.0443848749194156	0.016721494874499802	0.4050512494434448	0.39309792444777164	-0.025310216571113188	0.4141635252048336	0.6544665235246481	-0.029633539869145496	0.39336508640058165	0.8965380445013936	-0.013378651279950289	0.42211293420482626	1.00492655986158	-0.020219172469905906	0.3699653834345497	1.0100812004436752	-0.06230934799237688	0.39448377177943317	1.0020646898358647
146	2.4745762711864407	0.26336209185143317	0.42618327149563134	0.8869931808363163	0.24875737303654497	0.5596420826933036	1.3101248752372867	0.2216546950007364	0.7104965441073754	1.7059286840671415	0.24311298950808788	0.5020376671551847	1.72316421205663	0.30135798885239967	0.5431596645886936	1.7311450527424852	0.1965345467581059	0.7799446554614766	1.7756717609798556	0.06986399562885982	0.4056500642541104	0.8841922366615484	0.04564009518026345	0.592865673366756	1.3282730843693737	0.04457797239542206	0.6686154079028667	1.7308712515451765	0.08085855026932609	0.4579919086396578	1.7177417809542725	0.011875841917270187	0.5111885690088329	1.7291831089947927	0.058429678491195305	0.7322405703833449	1.7695748244029181	0.17995082382315503	0.43103629414322436	0.2976699431967965	0.19716372560227383	0.37479256638232983	0.059852578123986123	0.2068064053473149	0.3032208884981931	0.19364748726715902	0.29997106451445843	0.4591549352435432	0.41221233595102874	0.3668351349318493	0.43698593552335	0.6647717076615822	0.37504504544365524	0.4297398410141	0.9225388891377696	0.3186904371216876	0.4217026156296957	1.0361468605482151	0.33656242082364246	0.39353452528880206	1.0447780909553135	0.37533872975209237	0.46217244021228815	1.0474921941460515	0.016547455953768317	0.40531659939901793	0.3893918487416902	-0.024896624494290677	0.4140260423610396	0.6511140082791143	-0.03061484306521853	0.3808941125979197	0.8938219122298331	-0.01309333604504467	0.4345939113972961	1.0113491149281175	-0.0197637711256637	0.3821457074162194	1.013487306303384	-0.06236145659327446	0.3944372868938428	1.0021151282449765
147	2.4915254237288136	0.2633699637890108	0.4263749971643001	0.8869838185205923	0.24877102888467884	0.5595132171894762	1.310276514553831	0.22159115741355073	0.7105197371235386	1.7059689201980437	0.24899450220308025	0.4878799648301143	1.7152116036312721	0.3013728843529851	0.5435450465132751	1.7312792072477536	0.19647451735918872	0.7797444009366891	1.7756625574140963	0.07134499706356566	0.41785858201311277	0.8868024184491988	0.04653176432803044	0.5924446944553251	1.3242031577683615	0.04457459807198046	0.6684868548471589	1.7308549255353818	0.0808940257765264	0.4579986966254592	1.7177850914515178	0.011874886374215948	0.5108299906727286	1.7293411949089614	0.0582873179184818	0.731974554770542	1.7695484281444462	0.17992714462355883	0.43109387372276037	0.2976682417004454	0.19719287585457862	0.3747835828852189	0.059893008007937565	0.20677171253124355	0.303146142939664	0.1936383841787873	0.29997176262214215	0.45925442382802123	0.4122404219685367	0.36275224641885434	0.435233088919045	0.6645921780524972	0.37501557652842155	0.4297448317850141	0.9225514066917972	0.3188326275832015	0.4213876187208386	1.0361984708294893	0.3365929158383956	0.3935428139388477	1.0448884996533307	0.3755779483484037	0.462176096712748	1.0478032434177704	0.01640643457414972	0.4054463708362679	0.38938392623013174	-0.024975893750645874	0.4139902034753135	0.651073609872844	-0.030617589162255265	0.3808336135432433	0.8938491549284787	-0.013382821340161426	0.4354182909492017	1.011753663000927	-0.023873803376237696	0.379913778107007	1.013225217678803	-0.05571159379478005	0.382932544766903	0.9985906409454073
